<svg xmlns="http://www.w3.org/2000/svg" width="1440" height="1100" viewBox="0 0 1440 1100" font-family="'Geist', 'Inter', ui-sans-serif, system-ui, sans-serif">
  <desc>
  Component: ToolsSidebar (Chat page right panel — Tools mode)
  Page: /sessions/:id (Tools panel open)
  Design system version: 3.6 (2026-03-23)
  Artboards: desktop 1440×1100px (primary); small inset annotation for mobile Sheet variant
  Note: TriSwitch per DS §5 supersedes the Load/Unload + Switch design described in brief v1.6
  </desc>

  <!-- Page background -->
  <rect width="1440" height="1100" fill="#ffffff"/>
  <text x="4" y="-6" font-size="11" font-weight="500" fill="#71717a">Frame 1 — Desktop 1440px — Tools panel (right) with TriSwitch component, all 5 status variants</text>

  <!-- ===================== SIDEBAR ===================== -->
  <g id="layer-sidebar">
    <rect x="0" y="0" width="220" height="1100" fill="#fafafa"/>
    <line x1="220" y1="0" x2="220" y2="1100" stroke="#e4e4e7" stroke-width="1"/>
    <g transform="translate(16, 32)">
      <g transform="scale(0.785714)">
        <path d="M 21.071,6.929 A 10,10 0 1 0 21.071,21.071" fill="none" stroke="#0d9488" stroke-width="3.5" stroke-linecap="round"/>
        <circle cx="21.071" cy="6.929" r="2.2" fill="#0d9488"/>
        <circle cx="21.071" cy="21.071" r="1.6" fill="#0d9488"/>
      </g>
    </g>
    <text x="44" y="46" font-size="18" font-weight="600" fill="#18181b">Cogtrix</text>
    <line x1="0" y1="68" x2="220" y2="68" stroke="#e4e4e7" stroke-width="1"/>
    <!-- Sessions active -->
    <rect x="8" y="76" width="204" height="36" rx="6" fill="#f0fdfa"/>
    <rect x="8" y="76" width="2" height="36" rx="1" fill="#0d9488"/>
    <text x="42" y="99" font-size="14" font-weight="500" fill="#0d9488">Sessions</text>
  </g>

  <!-- ===================== CHAT AREA (simplified) ===================== -->
  <g id="layer-chat-simplified">
    <!-- Session header -->
    <rect x="220" y="0" width="900" height="52" fill="#ffffff"/>
    <line x1="220" y1="52" x2="1120" y2="52" stroke="#e4e4e7" stroke-width="1"/>
    <text x="240" y="50" font-size="16" font-weight="500" fill="#18181b">Code review sprint</text>
    <circle cx="330" cy="46" r="4" fill="#0d9488"/>
    <text x="340" y="50" font-size="13" font-weight="500" fill="#0f766e">Thinking...</text>

    <!-- Tools panel toggle button (active/teal) -->
    <g transform="translate(1072, 30)">
      <rect width="36" height="36" rx="6" fill="#f0fdfa"/>
      <g transform="translate(6, 6)" fill="none" stroke="#0d9488" stroke-width="1.75" stroke-linecap="round" stroke-linejoin="round">
        <rect x="0" y="0" width="12" height="4" rx="1"/>
        <rect x="0" y="7" width="12" height="4" rx="1"/>
        <rect x="0" y="14" width="8" height="4" rx="1"/>
        <circle cx="14" cy="2" r="2" fill="#0d9488" stroke="none"/>
        <circle cx="14" cy="9" r="2" fill="none"/>
        <circle cx="14" cy="16" r="2" fill="none"/>
      </g>
    </g>

    <!-- A few simplified message bubbles -->
    <!-- User bubble -->
    <g transform="translate(556, 90)">
      <rect width="340" height="44" rx="16" fill="#f0fdfa" stroke="#99f6e4" stroke-width="1"/>
      <text x="16" y="26" font-size="14" fill="#18181b">Can you review this pull request for me?</text>
    </g>
    <!-- Assistant bubble -->
    <g transform="translate(240, 150)">
      <rect width="540" height="76" rx="16" fill="#ffffff" stroke="#e4e4e7" stroke-width="1"/>
      <text x="16" y="24" font-size="14" fill="#18181b">I'll take a look. Let me analyze the diff first</text>
      <text x="16" y="44" font-size="14" fill="#18181b">using the code executor to understand the</text>
      <text x="16" y="64" font-size="14" fill="#18181b">changes thoroughly.</text>
    </g>
    <!-- Tool use indicator -->
    <g transform="translate(240, 242)">
      <rect width="300" height="32" rx="6" fill="#fafafa" stroke="#e4e4e7" stroke-width="1"/>
      <g transform="translate(10, 8)" fill="none" stroke="#a1a1aa" stroke-width="1.5" stroke-linecap="round" stroke-linejoin="round">
        <path d="M2 8 L6 4 L14 12 M8 2 L12 2 L12 6"/>
        <path d="M14 0 L16 2 L10 8"/>
      </g>
      <text x="32" y="20" font-size="12" font-weight="500" fill="#3f3f46" dominant-baseline="middle">code_executor</text>
      <circle cx="150" cy="16" r="4" fill="#14b8a6"/>
      <text x="162" y="20" font-size="12" fill="#71717a" dominant-baseline="middle">Running...</text>
    </g>
  </g>

  <!-- ===================== TOOLS PANEL (right, 320px) ===================== -->
  <g id="layer-panel" transform="translate(1120, 20)">
    <rect width="320" height="1080" fill="#ffffff"/>
    <line x1="0" y1="0" x2="0" y2="1080" stroke="#e4e4e7" stroke-width="1"/>

    <!-- Panel header -->
    <rect x="0" y="0" width="320" height="48" fill="#ffffff"/>
    <text x="16" y="28" font-size="14" font-weight="600" fill="#18181b">Tools</text>
    <!-- X close button -->
    <g transform="translate(284, 12)" fill="none" stroke="#71717a" stroke-width="2" stroke-linecap="round">
      <line x1="0" y1="0" x2="16" y2="16"/>
      <line x1="16" y1="0" x2="0" y2="16"/>
    </g>
    <line x1="0" y1="48" x2="320" y2="48" stroke="#e4e4e7" stroke-width="1"/>

    <!-- Filter bar -->
    <rect x="0" y="48" width="320" height="44" fill="#ffffff"/>
    <rect x="12" y="58" width="296" height="32" rx="6" fill="#ffffff" stroke="#e4e4e7" stroke-width="1"/>
    <!-- Search icon -->
    <g transform="translate(24, 66)" fill="none" stroke="#a1a1aa" stroke-width="1.5" stroke-linecap="round" stroke-linejoin="round">
      <circle cx="7" cy="7" r="6"/>
      <line x1="11.5" y1="11.5" x2="16" y2="16"/>
    </g>
    <text x="48" y="78" font-size="13" fill="#a1a1aa">Filter tools...</text>
    <line x1="0" y1="92" x2="320" y2="92" stroke="#e4e4e7" stroke-width="1"/>

    <!-- Tool list -->
    <g id="tool-list" transform="translate(0, 92)">

      <!-- TriSwitch helper macro: positions drawn inline per tool -->
      <!-- Track: 64×24, thumb: 20×20 -->

      <!-- === TOOL ROW 1: web_search — pinned (zinc) === -->
      <g id="tool-web-search" transform="translate(0, 4)">
        <rect x="12" y="0" width="296" height="60" rx="6" fill="#ffffff"/>
        <!-- Name -->
        <text x="24" y="18" font-size="14" font-weight="500" fill="#18181b">web_search</text>
        <!-- Pinned badge -->
        <rect x="108" y="6" width="48" height="18" rx="9" fill="#f4f4f5" stroke="#d4d4d8" stroke-width="1"/>
        <text x="132" y="18" font-size="11" font-weight="500" fill="#3f3f46" text-anchor="middle" dominant-baseline="middle">Pinned</text>
        <!-- Description -->
        <text x="24" y="36" font-size="12" fill="#71717a">Search the web for current information</text>
        <!-- TriSwitch: position 2 (loaded/right) — green thumb, green-100 track -->
        <g transform="translate(224, 16)">
          <!-- Track -->
          <rect width="64" height="24" rx="12" fill="#dcfce7" stroke="#e4e4e7" stroke-width="1"/>
          <!-- Tick dots: 4px circles at x=12,32,52 y=12 -->
          <circle cx="12" cy="12" r="2" fill="rgba(0,0,0,0.25)"/>
          <circle cx="32" cy="12" r="2" fill="rgba(0,0,0,0.25)"/>
          <!-- Position 2: thumb at cx=52 -->
          <circle cx="52" cy="12" r="10" fill="#16a34a"/>
        </g>
        <!-- opacity-50 note: pinned => TriSwitch disabled -->
        <text x="224" y="52" font-size="10" fill="#a1a1aa" font-style="italic">disabled (pinned)</text>
        <line x1="12" y1="60" x2="308" y2="60" stroke="#f4f4f5" stroke-width="1"/>
      </g>

      <!-- === TOOL ROW 2: code_executor — active (green) === -->
      <g id="tool-code-executor" transform="translate(0, 68)">
        <rect x="12" y="0" width="296" height="60" rx="6" fill="#ffffff"/>
        <text x="24" y="18" font-size="14" font-weight="500" fill="#18181b">code_executor</text>
        <!-- Active badge -->
        <rect x="116" y="6" width="46" height="18" rx="9" fill="#dcfce7" stroke="#86efac" stroke-width="1"/>
        <text x="139" y="18" font-size="11" font-weight="500" fill="#15803d" text-anchor="middle" dominant-baseline="middle">Active</text>
        <!-- Description -->
        <text x="24" y="36" font-size="12" fill="#71717a">Execute Python or shell code</text>
        <!-- TriSwitch: position 2 (loaded) — green-100 track, green thumb -->
        <g transform="translate(224, 16)">
          <rect width="64" height="24" rx="12" fill="#dcfce7" stroke="#e4e4e7" stroke-width="1"/>
          <circle cx="12" cy="12" r="2" fill="rgba(0,0,0,0.25)"/>
          <circle cx="32" cy="12" r="2" fill="rgba(0,0,0,0.25)"/>
          <circle cx="52" cy="12" r="10" fill="#16a34a"/>
        </g>
        <line x1="12" y1="60" x2="308" y2="60" stroke="#f4f4f5" stroke-width="1"/>
      </g>

      <!-- === TOOL ROW 3: file_reader — on_demand (blue) === -->
      <g id="tool-file-reader" transform="translate(0, 132)">
        <rect x="12" y="0" width="296" height="60" rx="6" fill="#ffffff"/>
        <text x="24" y="18" font-size="14" font-weight="500" fill="#18181b">file_reader</text>
        <!-- On demand badge -->
        <rect x="104" y="6" width="66" height="18" rx="9" fill="#eff6ff" stroke="#bfdbfe" stroke-width="1"/>
        <text x="137" y="18" font-size="11" font-weight="500" fill="#1d4ed8" text-anchor="middle" dominant-baseline="middle">On demand</text>
        <!-- Description -->
        <text x="24" y="36" font-size="12" fill="#71717a">Read files from the workspace</text>
        <!-- TriSwitch: position 1 (on_demand/middle) — teal-100 track, teal-500 thumb -->
        <g transform="translate(224, 16)">
          <rect width="64" height="24" rx="12" fill="#ccfbf1" stroke="#e4e4e7" stroke-width="1"/>
          <!-- Ticks at 12 and 52 visible, 32 covered -->
          <circle cx="12" cy="12" r="2" fill="rgba(0,0,0,0.25)"/>
          <circle cx="52" cy="12" r="2" fill="rgba(0,0,0,0.25)"/>
          <circle cx="32" cy="12" r="10" fill="#14b8a6"/>
        </g>
        <line x1="12" y1="60" x2="308" y2="60" stroke="#f4f4f5" stroke-width="1"/>
      </g>

      <!-- === TOOL ROW 4: send_email — auto_approved (teal) === -->
      <g id="tool-send-email" transform="translate(0, 196)">
        <rect x="12" y="0" width="296" height="60" rx="6" fill="#ffffff"/>
        <text x="24" y="18" font-size="14" font-weight="500" fill="#18181b">send_email</text>
        <!-- Auto-approved badge — teal per DS §5 -->
        <rect x="104" y="6" width="82" height="18" rx="9" fill="#f0fdfa" stroke="#99f6e4" stroke-width="1"/>
        <text x="145" y="18" font-size="11" font-weight="500" fill="#0f766e" text-anchor="middle" dominant-baseline="middle">Auto-approved</text>
        <!-- Description -->
        <text x="24" y="36" font-size="12" fill="#71717a">Send emails via SMTP</text>
        <!-- TriSwitch: position 2 (loaded) -->
        <g transform="translate(224, 16)">
          <rect width="64" height="24" rx="12" fill="#dcfce7" stroke="#e4e4e7" stroke-width="1"/>
          <circle cx="12" cy="12" r="2" fill="rgba(0,0,0,0.25)"/>
          <circle cx="32" cy="12" r="2" fill="rgba(0,0,0,0.25)"/>
          <circle cx="52" cy="12" r="10" fill="#16a34a"/>
        </g>
        <line x1="12" y1="60" x2="308" y2="60" stroke="#f4f4f5" stroke-width="1"/>
      </g>

      <!-- === TOOL ROW 5: brave_search — on_demand + MCP badge === -->
      <g id="tool-brave-search" transform="translate(0, 260)">
        <rect x="12" y="0" width="296" height="60" rx="6" fill="#fafafa"/>
        <!-- hover bg annotation -->
        <text x="292" y="8" font-size="9" fill="#a1a1aa" font-style="italic" text-anchor="end">hover</text>
        <text x="24" y="18" font-size="14" font-weight="500" fill="#18181b">brave_search</text>
        <!-- On demand badge -->
        <rect x="116" y="6" width="66" height="18" rx="9" fill="#eff6ff" stroke="#bfdbfe" stroke-width="1"/>
        <text x="149" y="18" font-size="11" font-weight="500" fill="#1d4ed8" text-anchor="middle" dominant-baseline="middle">On demand</text>
        <!-- MCP badge (outline) -->
        <rect x="188" y="6" width="32" height="18" rx="9" fill="none" stroke="#e4e4e7" stroke-width="1"/>
        <text x="204" y="18" font-size="10" fill="#52525b" text-anchor="middle" dominant-baseline="middle">MCP</text>
        <!-- Description -->
        <text x="24" y="36" font-size="12" fill="#71717a">Search using Brave Search API</text>
        <!-- TriSwitch: position 1 (on_demand) -->
        <g transform="translate(224, 16)">
          <rect width="64" height="24" rx="12" fill="#ccfbf1" stroke="#e4e4e7" stroke-width="1"/>
          <circle cx="12" cy="12" r="2" fill="rgba(0,0,0,0.25)"/>
          <circle cx="52" cy="12" r="2" fill="rgba(0,0,0,0.25)"/>
          <circle cx="32" cy="12" r="10" fill="#14b8a6"/>
        </g>
        <line x1="12" y1="60" x2="308" y2="60" stroke="#f4f4f5" stroke-width="1"/>
      </g>

      <!-- === TOOL ROW 6: calendar_events — disabled + MCP === -->
      <g id="tool-calendar-events" transform="translate(0, 324)">
        <rect x="12" y="0" width="296" height="60" rx="6" fill="#ffffff"/>
        <text x="24" y="18" font-size="14" font-weight="500" fill="#18181b">calendar_events</text>
        <!-- Disabled badge -->
        <rect x="126" y="6" width="54" height="18" rx="9" fill="#fafafa" stroke="#e4e4e7" stroke-width="1"/>
        <text x="153" y="18" font-size="11" font-weight="500" fill="#71717a" text-anchor="middle" dominant-baseline="middle">Disabled</text>
        <!-- MCP badge -->
        <rect x="186" y="6" width="32" height="18" rx="9" fill="none" stroke="#e4e4e7" stroke-width="1"/>
        <text x="202" y="18" font-size="10" fill="#52525b" text-anchor="middle" dominant-baseline="middle">MCP</text>
        <!-- Description -->
        <text x="24" y="36" font-size="12" fill="#71717a">Read and create calendar events</text>
        <!-- TriSwitch: position 0 (disabled) — zinc-200 track, white thumb with border -->
        <g transform="translate(224, 16)">
          <rect width="64" height="24" rx="12" fill="#e4e4e7" stroke="#e4e4e7" stroke-width="1"/>
          <circle cx="32" cy="12" r="2" fill="rgba(0,0,0,0.25)"/>
          <circle cx="52" cy="12" r="2" fill="rgba(0,0,0,0.25)"/>
          <!-- Position 0: thumb at cx=12 -->
          <circle cx="12" cy="12" r="10" fill="#ffffff" stroke="#d4d4d8" stroke-width="1"/>
        </g>
        <line x1="12" y1="60" x2="308" y2="60" stroke="#f4f4f5" stroke-width="1"/>
      </g>

      <!-- === TOOL ROW 7: database_query — on_demand === -->
      <g id="tool-database-query" transform="translate(0, 388)">
        <rect x="12" y="0" width="296" height="60" rx="6" fill="#ffffff"/>
        <text x="24" y="18" font-size="14" font-weight="500" fill="#18181b">database_query</text>
        <!-- On demand badge -->
        <rect x="124" y="6" width="66" height="18" rx="9" fill="#eff6ff" stroke="#bfdbfe" stroke-width="1"/>
        <text x="157" y="18" font-size="11" font-weight="500" fill="#1d4ed8" text-anchor="middle" dominant-baseline="middle">On demand</text>
        <!-- Description -->
        <text x="24" y="36" font-size="12" fill="#71717a">Run SQL queries against the connected DB</text>
        <!-- TriSwitch: position 1 (on_demand) -->
        <g transform="translate(224, 16)">
          <rect width="64" height="24" rx="12" fill="#ccfbf1" stroke="#e4e4e7" stroke-width="1"/>
          <circle cx="12" cy="12" r="2" fill="rgba(0,0,0,0.25)"/>
          <circle cx="52" cy="12" r="2" fill="rgba(0,0,0,0.25)"/>
          <circle cx="32" cy="12" r="10" fill="#14b8a6"/>
        </g>
        <line x1="12" y1="60" x2="308" y2="60" stroke="#f4f4f5" stroke-width="1"/>
      </g>

      <!-- === TOOL ROW 8: github_pr — disabled + MCP === -->
      <g id="tool-github-pr" transform="translate(0, 452)">
        <rect x="12" y="0" width="296" height="60" rx="6" fill="#ffffff"/>
        <text x="24" y="18" font-size="14" font-weight="500" fill="#18181b">github_pr</text>
        <!-- Disabled badge -->
        <rect x="94" y="6" width="54" height="18" rx="9" fill="#fafafa" stroke="#e4e4e7" stroke-width="1"/>
        <text x="121" y="18" font-size="11" font-weight="500" fill="#71717a" text-anchor="middle" dominant-baseline="middle">Disabled</text>
        <!-- MCP badge -->
        <rect x="154" y="6" width="32" height="18" rx="9" fill="none" stroke="#e4e4e7" stroke-width="1"/>
        <text x="170" y="18" font-size="10" fill="#52525b" text-anchor="middle" dominant-baseline="middle">MCP</text>
        <!-- Description -->
        <text x="24" y="36" font-size="12" fill="#71717a">Create and review GitHub pull requests</text>
        <!-- TriSwitch: position 0 (disabled) -->
        <g transform="translate(224, 16)">
          <rect width="64" height="24" rx="12" fill="#e4e4e7" stroke="#e4e4e7" stroke-width="1"/>
          <circle cx="32" cy="12" r="2" fill="rgba(0,0,0,0.25)"/>
          <circle cx="52" cy="12" r="2" fill="rgba(0,0,0,0.25)"/>
          <circle cx="12" cy="12" r="10" fill="#ffffff" stroke="#d4d4d8" stroke-width="1"/>
        </g>
      </g>
    </g>

    <!-- ===== TriSwitch position legend ===== -->
    <g transform="translate(12, 576)">
      <line x1="0" y1="0" x2="296" y2="0" stroke="#e4e4e7" stroke-width="1"/>
      <text x="0" y="18" font-size="11" font-weight="600" fill="#71717a">TriSwitch positions (DS §5):</text>
      <text x="0" y="34" font-size="11" fill="#71717a">0 (left): Disabled — white thumb, zinc-200 track</text>
      <text x="0" y="50" font-size="11" fill="#71717a">1 (middle): On-demand — teal-500 thumb, teal-100 track</text>
      <text x="0" y="66" font-size="11" fill="#71717a">2 (right): Loaded — green-600 thumb, green-100 track</text>
    </g>

    <!-- ===== Interaction states annotation ===== -->
    <g transform="translate(12, 656)">
      <text x="0" y="0" font-size="11" font-weight="600" fill="#71717a">Interaction states:</text>
      <!-- Toggle in progress -->
      <text x="0" y="18" font-size="11" fill="#71717a">Toggle in progress: row opacity-50, cursor-not-allowed</text>
      <!-- Loading state -->
      <text x="0" y="36" font-size="11" fill="#71717a">Loading: 5 skeleton pills h-12 in tool list</text>
      <!-- Error state -->
      <text x="0" y="54" font-size="11" fill="#71717a">Error: text-red-600 + outline "Retry" button, centered</text>
    </g>

    <!-- ===== No-match empty state small frame ===== -->
    <g transform="translate(12, 730)">
      <text x="0" y="0" font-size="11" font-weight="600" fill="#71717a">Filter no-match state:</text>
      <rect x="0" y="8" width="296" height="72" rx="6" fill="#fafafa" stroke="#e4e4e7" stroke-width="1"/>
      <!-- Search icon in filter -->
      <rect x="8" y="18" width="280" height="28" rx="6" fill="#ffffff" stroke="#e4e4e7" stroke-width="1"/>
      <g transform="translate(18, 24)" fill="none" stroke="#a1a1aa" stroke-width="1.5" stroke-linecap="round">
        <circle cx="6" cy="6" r="5"/>
        <line x1="10" y1="10" x2="13" y2="13"/>
      </g>
      <text x="36" y="36" font-size="12" fill="#18181b" dominant-baseline="middle">browsertools</text>
      <!-- Empty result -->
      <text x="148" y="60" font-size="13" fill="#71717a" text-anchor="middle" dominant-baseline="middle">No matching tools</text>
    </g>
  </g>

  <!-- ===== ANNOTATION BOX: Status badge semantics ===== -->
  <g transform="translate(240, 440)">
    <rect width="860" height="180" rx="8" fill="#fafafa" stroke="#e4e4e7" stroke-width="1"/>
    <text x="16" y="22" font-size="12" font-weight="600" fill="#18181b">Status badge semantics annotation</text>
    <line x1="16" y1="30" x2="844" y2="30" stroke="#e4e4e7" stroke-width="1"/>
    <!-- Row headers -->
    <text x="16" y="50" font-size="11" font-weight="600" fill="#71717a">Status</text>
    <text x="130" y="50" font-size="11" font-weight="600" fill="#71717a">Badge colors</text>
    <text x="360" y="50" font-size="11" font-weight="600" fill="#71717a">TriSwitch position</text>
    <text x="530" y="50" font-size="11" font-weight="600" fill="#71717a">Semantic meaning</text>

    <!-- active -->
    <text x="16" y="70" font-size="11" fill="#18181b">active</text>
    <rect x="130" y="58" width="40" height="18" rx="9" fill="#dcfce7" stroke="#86efac" stroke-width="1"/>
    <text x="150" y="70" font-size="11" fill="#15803d" text-anchor="middle" dominant-baseline="middle">Active</text>
    <text x="360" y="70" font-size="11" fill="#18181b">Position 2 (Loaded)</text>
    <text x="530" y="70" font-size="11" fill="#71717a">LLM-loaded this turn; auto-unloads after</text>

    <!-- pinned -->
    <text x="16" y="92" font-size="11" fill="#18181b">pinned</text>
    <rect x="130" y="80" width="40" height="18" rx="9" fill="#f4f4f5" stroke="#d4d4d8" stroke-width="1"/>
    <text x="150" y="92" font-size="11" fill="#3f3f46" text-anchor="middle" dominant-baseline="middle">Pinned</text>
    <text x="360" y="92" font-size="11" fill="#18181b">Position 2, disabled (opacity-50)</text>
    <text x="530" y="92" font-size="11" fill="#71717a">System-locked; always loaded, not adjustable</text>

    <!-- on_demand -->
    <text x="16" y="114" font-size="11" fill="#18181b">on_demand</text>
    <rect x="130" y="102" width="62" height="18" rx="9" fill="#eff6ff" stroke="#bfdbfe" stroke-width="1"/>
    <text x="161" y="114" font-size="11" fill="#1d4ed8" text-anchor="middle" dominant-baseline="middle">On demand</text>
    <text x="360" y="114" font-size="11" fill="#18181b">Position 1 (middle)</text>
    <text x="530" y="114" font-size="11" fill="#71717a">Enabled; LLM may invoke when relevant</text>

    <!-- disabled -->
    <text x="16" y="136" font-size="11" fill="#18181b">disabled</text>
    <rect x="130" y="124" width="50" height="18" rx="9" fill="#fafafa" stroke="#e4e4e7" stroke-width="1"/>
    <text x="155" y="136" font-size="11" fill="#71717a" text-anchor="middle" dominant-baseline="middle">Disabled</text>
    <text x="360" y="136" font-size="11" fill="#18181b">Position 0 (left)</text>
    <text x="530" y="136" font-size="11" fill="#71717a">Excluded from LLM tool set</text>

    <!-- auto_approved -->
    <text x="16" y="158" font-size="11" fill="#18181b">auto_approved</text>
    <rect x="130" y="146" width="76" height="18" rx="9" fill="#f0fdfa" stroke="#99f6e4" stroke-width="1"/>
    <text x="168" y="158" font-size="11" fill="#0f766e" text-anchor="middle" dominant-baseline="middle">Auto-approved</text>
    <text x="360" y="158" font-size="11" fill="#18181b">Position 2 (Loaded)</text>
    <text x="530" y="158" font-size="11" fill="#71717a">Loaded; executes without user confirmation</text>
  </g>
</svg>
