<?xml version="1.0" encoding="UTF-8"?>
<svg xmlns="http://www.w3.org/2000/svg" viewBox="0 0 1730 920" width="1730" height="920">
  <desc>
  Component: Sessions page — grid/list view toggle
  Page: Sessions (/sessions)
  Design system version: 3.14 (2026-03-25)
  Artboards: desktop 1280px (two frames: grid view + list view), mobile 390px (list view, 3 cols)
  Bug: BUG-02 — Sessions page: grid/list view toggle
  </desc>

  <defs>
    <style>
      text { font-family: system-ui, -apple-system, sans-serif; }
    </style>
    <!-- AgentStateBadge idle: bg-zinc-100 text-zinc-600 -->
    <!-- AgentStateBadge thinking: bg-teal-50 text-teal-700 -->
  </defs>

  <!-- Page background -->
  <rect width="1730" height="920" fill="#f4f4f5"/>

  <!-- ── Annotation banner ── -->
  <rect x="0" y="0" width="1730" height="32" fill="#fafafa" rx="0"/>
  <line x1="0" y1="32" x2="1730" y2="32" stroke="#e4e4e7" stroke-width="1"/>
  <text x="16" y="21" font-size="11" fill="#71717a" font-weight="500">BUG-02 — Sessions page: grid/list view toggle — Left frame: grid view (LayoutGrid active). Right frame: list view (LayoutList active). Third frame: mobile 390px list view.</text>

  <!-- ════════════════════════════════════════════
       FRAME 1 — GRID VIEW (left, 600px wide)
       ════════════════════════════════════════════ -->

  <rect x="8" y="40" width="620" height="860" rx="12" fill="#ffffff" stroke="#e4e4e7" stroke-width="1"/>
  <!-- Frame label -->
  <text x="24" y="62" font-size="11" font-weight="600" fill="#0d9488">Frame 1 — Grid view (LayoutGrid active)</text>

  <!-- ── Page Header ── -->
  <!-- Sessions h1 -->
  <text x="28" y="102" font-size="24" font-weight="600" fill="#18181b">Sessions</text>

  <!-- Right controls cluster -->
  <!-- Show archived switch + label -->
  <!-- Switch track: rounded-full, unchecked = bg-zinc-200 -->
  <rect x="330" y="84" width="36" height="20" rx="10" fill="#e4e4e7"/>
  <circle cx="341" cy="94" r="8" fill="#ffffff" filter="drop-shadow(0 1px 2px rgba(0,0,0,0.15))"/>
  <text x="372" y="99" font-size="13" fill="#71717a">Show archived</text>

  <!-- View toggle group: rounded-lg border border-zinc-200 p-0.5 -->
  <!-- LayoutGrid button: ACTIVE → bg-zinc-100 -->
  <rect x="454" y="82" width="72" height="28" rx="6" fill="#f4f4f5" stroke="#e4e4e7" stroke-width="1"/>
  <!-- LayoutGrid active button bg -->
  <rect x="456" y="84" width="32" height="24" rx="5" fill="#f4f4f5"/>
  <!-- LayoutGrid icon 16x16, text-zinc-900 -->
  <g transform="translate(464, 92)">
    <rect x="0" y="0" width="5" height="5" rx="0.8" fill="#18181b"/>
    <rect x="7" y="0" width="5" height="5" rx="0.8" fill="#18181b"/>
    <rect x="0" y="7" width="5" height="5" rx="0.8" fill="#18181b"/>
    <rect x="7" y="7" width="5" height="5" rx="0.8" fill="#18181b"/>
  </g>
  <!-- LayoutList inactive button -->
  <rect x="490" y="84" width="32" height="24" rx="5" fill="transparent"/>
  <!-- LayoutList icon 16x16, text-zinc-500 -->
  <g transform="translate(498, 92)">
    <line x1="0" y1="2" x2="12" y2="2" stroke="#71717a" stroke-width="1.5" stroke-linecap="round"/>
    <line x1="0" y1="6" x2="12" y2="6" stroke="#71717a" stroke-width="1.5" stroke-linecap="round"/>
    <line x1="0" y1="10" x2="12" y2="10" stroke="#71717a" stroke-width="1.5" stroke-linecap="round"/>
  </g>

  <!-- "New session" button: bg-primary (teal-600) -->
  <rect x="532" y="80" width="88" height="36" rx="6" fill="#0d9488"/>
  <text x="556" y="103" font-size="13" font-weight="500" fill="#ffffff">+ New</text>

  <!-- Divider below header -->
  <line x1="28" y1="128" x2="612" y2="128" stroke="#e4e4e7" stroke-width="1"/>

  <!-- ── Grid view: 3 cards, 2 columns ── -->
  <!-- Card 1 -->
  <rect x="28" y="142" width="178" height="120" rx="12" fill="#ffffff" stroke="#e4e4e7" stroke-width="1"/>
  <text x="44" y="168" font-size="14" font-weight="500" fill="#18181b">Research sprint</text>
  <!-- AgentStateBadge idle -->
  <rect x="44" y="178" width="32" height="18" rx="9" fill="#f4f4f5"/>
  <text x="50" y="191" font-size="10" font-weight="500" fill="#52525b">idle</text>
  <!-- Model subtitle -->
  <text x="44" y="213" font-size="12" fill="#71717a">claude-sonnet-4-6</text>
  <!-- Time -->
  <text x="44" y="232" font-size="11" fill="#71717a">2 hours ago</text>
  <!-- Trash icon top-right (ghost, opacity-0 on hover) -->
  <g transform="translate(170, 142)" opacity="0.3">
    <rect width="28" height="28" rx="5" fill="transparent"/>
    <line x1="9" y1="6" x2="19" y2="6" stroke="#71717a" stroke-width="1.4" stroke-linecap="round"/>
    <line x1="14" y1="4" x2="14" y2="6" stroke="#71717a" stroke-width="1.4" stroke-linecap="round"/>
    <rect x="7" y="7" width="14" height="14" rx="2" fill="none" stroke="#71717a" stroke-width="1.4"/>
    <line x1="10" y1="11" x2="10" y2="17" stroke="#71717a" stroke-width="1.2" stroke-linecap="round"/>
    <line x1="14" y1="11" x2="14" y2="17" stroke="#71717a" stroke-width="1.2" stroke-linecap="round"/>
    <line x1="18" y1="11" x2="18" y2="17" stroke="#71717a" stroke-width="1.2" stroke-linecap="round"/>
  </g>

  <!-- Card 2 -->
  <rect x="218" y="142" width="178" height="120" rx="12" fill="#ffffff" stroke="#e4e4e7" stroke-width="1"/>
  <text x="234" y="168" font-size="14" font-weight="500" fill="#18181b">Code refactor</text>
  <!-- AgentStateBadge thinking: teal -->
  <rect x="234" y="178" width="62" height="18" rx="9" fill="#f0fdfa"/>
  <circle cx="245" cy="187" r="3" fill="#0d9488" opacity="0.7"/>
  <text x="251" y="191" font-size="10" font-weight="500" fill="#0f766e">thinking</text>
  <!-- Model subtitle -->
  <text x="234" y="213" font-size="12" fill="#71717a">ollama/qwen3:8b</text>
  <!-- Time -->
  <text x="234" y="232" font-size="11" fill="#71717a">just now</text>

  <!-- Card 3 -->
  <rect x="28" y="276" width="178" height="120" rx="12" fill="#fafafa" stroke="#e4e4e7" stroke-width="1"/>
  <!-- Archived badge -->
  <text x="44" y="302" font-size="14" font-weight="500" fill="#18181b" opacity="0.6">Old experiment</text>
  <rect x="44" y="312" width="32" height="18" rx="9" fill="#f4f4f5"/>
  <text x="50" y="325" font-size="10" font-weight="500" fill="#52525b">idle</text>
  <rect x="82" y="312" width="54" height="18" rx="9" fill="#f4f4f5"/>
  <text x="87" y="325" font-size="10" fill="#71717a">Archived</text>
  <text x="44" y="347" font-size="12" fill="#71717a" opacity="0.6">gpt-4.1-mini</text>
  <text x="44" y="366" font-size="11" fill="#71717a" opacity="0.6">yesterday</text>

  <!-- Grid view annotation -->
  <text x="28" y="430" font-size="11" fill="#71717a">grid-cols-1 gap-6 md:grid-cols-2 xl:grid-cols-3</text>
  <text x="28" y="446" font-size="11" fill="#0d9488">LayoutGrid button: bg-zinc-100 text-zinc-900 (active)</text>

  <!-- ════════════════════════════════════════════
       FRAME 2 — LIST VIEW (right, 600px wide)
       ════════════════════════════════════════════ -->

  <rect x="652" y="40" width="620" height="860" rx="12" fill="#ffffff" stroke="#e4e4e7" stroke-width="1"/>
  <!-- Frame label -->
  <text x="668" y="62" font-size="11" font-weight="600" fill="#0d9488">Frame 2 — List view (LayoutList active)</text>

  <!-- ── Page Header (list view) ── -->
  <text x="668" y="102" font-size="24" font-weight="600" fill="#18181b">Sessions</text>

  <!-- Show archived switch -->
  <rect x="972" y="84" width="36" height="20" rx="10" fill="#e4e4e7"/>
  <circle cx="983" cy="94" r="8" fill="#ffffff" filter="drop-shadow(0 1px 2px rgba(0,0,0,0.15))"/>
  <text x="1014" y="99" font-size="13" fill="#71717a">Show archived</text>

  <!-- View toggle group — LayoutList ACTIVE -->
  <rect x="1096" y="82" width="72" height="28" rx="6" fill="#f4f4f5" stroke="#e4e4e7" stroke-width="1"/>
  <!-- LayoutGrid inactive -->
  <rect x="1098" y="84" width="32" height="24" rx="5" fill="transparent"/>
  <g transform="translate(1106, 92)">
    <rect x="0" y="0" width="5" height="5" rx="0.8" fill="#71717a"/>
    <rect x="7" y="0" width="5" height="5" rx="0.8" fill="#71717a"/>
    <rect x="0" y="7" width="5" height="5" rx="0.8" fill="#71717a"/>
    <rect x="7" y="7" width="5" height="5" rx="0.8" fill="#71717a"/>
  </g>
  <!-- LayoutList ACTIVE -->
  <rect x="1132" y="84" width="32" height="24" rx="5" fill="#f4f4f5"/>
  <g transform="translate(1140, 92)">
    <line x1="0" y1="2" x2="12" y2="2" stroke="#18181b" stroke-width="1.5" stroke-linecap="round"/>
    <line x1="0" y1="6" x2="12" y2="6" stroke="#18181b" stroke-width="1.5" stroke-linecap="round"/>
    <line x1="0" y1="10" x2="12" y2="10" stroke="#18181b" stroke-width="1.5" stroke-linecap="round"/>
  </g>

  <!-- New session button -->
  <rect x="1174" y="80" width="88" height="36" rx="6" fill="#0d9488"/>
  <text x="1198" y="103" font-size="13" font-weight="500" fill="#ffffff">+ New</text>

  <!-- Divider -->
  <line x1="668" y1="128" x2="1262" y2="128" stroke="#e4e4e7" stroke-width="1"/>

  <!-- ── List view table ── -->
  <!-- Table container: overflow-x-auto rounded-xl border border-zinc-200 -->
  <rect x="668" y="142" width="576" height="260" rx="12" fill="#ffffff" stroke="#e4e4e7" stroke-width="1"/>

  <!-- Table header -->
  <rect x="668" y="142" width="576" height="40" rx="12" fill="#fafafa"/>
  <rect x="668" y="162" width="576" height="20" fill="#fafafa"/>
  <line x1="668" y1="182" x2="1244" y2="182" stroke="#e4e4e7" stroke-width="1"/>

  <!-- Column headers -->
  <text x="688" y="166" font-size="11" font-weight="500" fill="#71717a" letter-spacing="0.06em">NAME</text>
  <text x="818" y="166" font-size="11" font-weight="500" fill="#71717a" letter-spacing="0.06em">MODEL</text>
  <text x="958" y="166" font-size="11" font-weight="500" fill="#71717a" letter-spacing="0.06em">STATE</text>
  <text x="1058" y="166" font-size="11" font-weight="500" fill="#71717a" letter-spacing="0.06em">UPDATED</text>
  <!-- Actions col (no label) -->

  <!-- Row 1 -->
  <rect x="668" y="182" width="576" height="52" fill="#fafafa"/>
  <text x="688" y="212" font-size="13" font-weight="500" fill="#18181b">Research sprint</text>
  <text x="818" y="212" font-size="13" fill="#52525b">claude-sonnet-4-6</text>
  <!-- AgentStateBadge idle -->
  <rect x="958" y="200" width="32" height="18" rx="9" fill="#f4f4f5"/>
  <text x="964" y="213" font-size="10" font-weight="500" fill="#52525b">idle</text>
  <text x="1058" y="212" font-size="11" fill="#71717a" font-variant-numeric="tabular-nums">2h ago</text>
  <!-- Trash icon -->
  <g transform="translate(1218, 196)">
    <rect width="28" height="28" rx="5" fill="transparent"/>
    <line x1="7" y1="6" x2="21" y2="6" stroke="#71717a" stroke-width="1.4" stroke-linecap="round"/>
    <rect x="5" y="8" width="18" height="13" rx="2" fill="none" stroke="#71717a" stroke-width="1.4"/>
    <line x1="12" y1="11" x2="12" y2="17" stroke="#71717a" stroke-width="1.2" stroke-linecap="round"/>
    <line x1="16" y1="11" x2="16" y2="17" stroke="#71717a" stroke-width="1.2" stroke-linecap="round"/>
  </g>

  <line x1="669" y1="234" x2="1243" y2="234" stroke="#e4e4e7" stroke-width="1"/>

  <!-- Row 2: hover state bg-zinc-50 -->
  <rect x="668" y="234" width="576" height="52" fill="#fafafa"/>
  <text x="688" y="264" font-size="13" font-weight="500" fill="#18181b">Code refactor</text>
  <text x="818" y="264" font-size="13" fill="#52525b">ollama/qwen3:8b</text>
  <!-- thinking badge -->
  <rect x="958" y="252" width="62" height="18" rx="9" fill="#f0fdfa"/>
  <circle cx="969" cy="261" r="3" fill="#0d9488" opacity="0.7"/>
  <text x="975" y="265" font-size="10" font-weight="500" fill="#0f766e">thinking</text>
  <text x="1058" y="264" font-size="11" fill="#71717a" font-variant-numeric="tabular-nums">just now</text>
  <g transform="translate(1218, 248)">
    <rect width="28" height="28" rx="5" fill="transparent"/>
    <line x1="7" y1="6" x2="21" y2="6" stroke="#71717a" stroke-width="1.4" stroke-linecap="round"/>
    <rect x="5" y="8" width="18" height="13" rx="2" fill="none" stroke="#71717a" stroke-width="1.4"/>
    <line x1="12" y1="11" x2="12" y2="17" stroke="#71717a" stroke-width="1.2" stroke-linecap="round"/>
    <line x1="16" y1="11" x2="16" y2="17" stroke="#71717a" stroke-width="1.2" stroke-linecap="round"/>
  </g>

  <line x1="669" y1="286" x2="1243" y2="286" stroke="#e4e4e7" stroke-width="1"/>

  <!-- Row 3: archived -->
  <rect x="668" y="286" width="576" height="52" fill="#fafafa" opacity="0.7"/>
  <text x="688" y="316" font-size="13" font-weight="500" fill="#18181b" opacity="0.6">Old experiment</text>
  <text x="818" y="316" font-size="13" fill="#52525b" opacity="0.6">gpt-4.1-mini</text>
  <rect x="958" y="304" width="32" height="18" rx="9" fill="#f4f4f5" opacity="0.6"/>
  <text x="964" y="317" font-size="10" font-weight="500" fill="#52525b" opacity="0.6">idle</text>
  <rect x="998" y="304" width="54" height="18" rx="9" fill="#f4f4f5"/>
  <text x="1003" y="317" font-size="10" fill="#71717a">Archived</text>
  <text x="1058" y="316" font-size="11" fill="#71717a" font-variant-numeric="tabular-nums" opacity="0.6">yesterday</text>
  <!-- Unarchive + delete icons for archived row -->
  <g transform="translate(1186, 300)" opacity="0.8">
    <!-- ArchiveRestore icon -->
    <rect width="28" height="28" rx="5" fill="transparent"/>
    <rect x="3" y="8" width="22" height="14" rx="2" fill="none" stroke="#71717a" stroke-width="1.4"/>
    <polyline points="10,14 14,10 18,14" fill="none" stroke="#71717a" stroke-width="1.4" stroke-linecap="round" stroke-linejoin="round"/>
    <line x1="14" y1="10" x2="14" y2="18" stroke="#71717a" stroke-width="1.4" stroke-linecap="round"/>
    <line x1="3" y1="8" x2="25" y2="8" stroke="#71717a" stroke-width="1.4" stroke-linecap="round"/>
  </g>
  <g transform="translate(1216, 300)" opacity="0.8">
    <rect width="28" height="28" rx="5" fill="transparent"/>
    <line x1="7" y1="6" x2="21" y2="6" stroke="#71717a" stroke-width="1.4" stroke-linecap="round"/>
    <rect x="5" y="8" width="18" height="13" rx="2" fill="none" stroke="#71717a" stroke-width="1.4"/>
  </g>

  <!-- List view annotation -->
  <text x="668" y="430" font-size="11" fill="#71717a">overflow-x-auto rounded-xl border border-zinc-200 — 5 columns: Name | Model | State | Updated | Actions</text>
  <text x="668" y="446" font-size="11" fill="#0d9488">LayoutList button: bg-zinc-100 text-zinc-900 (active) — LayoutGrid: text-zinc-500 (inactive)</text>
  <text x="668" y="462" font-size="11" fill="#71717a">Row hover: hover:bg-zinc-50 cursor-pointer — h-14 row height — text-sm</text>

  <!-- ════════════════════════════════════════════
       TOGGLE GROUP DETAIL CALLOUT (bottom center)
       ════════════════════════════════════════════ -->
  <rect x="350" y="800" width="580" height="100" rx="10" fill="#f0fdfa" stroke="#99f6e4" stroke-width="1"/>
  <text x="370" y="822" font-size="12" font-weight="600" fill="#0d9488">View toggle group detail</text>

  <!-- Grid active state -->
  <text x="370" y="844" font-size="11" fill="#71717a">Container:</text>
  <text x="440" y="844" font-size="11" fill="#18181b" font-family="monospace, monospace">rounded-lg border border-zinc-200 p-0.5</text>
  <text x="370" y="862" font-size="11" fill="#71717a">Active btn:</text>
  <text x="440" y="862" font-size="11" fill="#18181b" font-family="monospace, monospace">h-8 w-8 bg-zinc-100 text-zinc-900</text>
  <text x="370" y="880" font-size="11" fill="#71717a">Inactive btn:</text>
  <text x="440" y="880" font-size="11" fill="#18181b" font-family="monospace, monospace">h-8 w-8 text-zinc-500 hover:bg-zinc-100</text>

  <!-- Why h-8 note -->
  <text x="370" y="896" font-size="10" fill="#71717a" font-style="italic">h-8 (32px) — page header control context, not sticky bar. WCAG 2.5.8 AA (24px) met.</text>

  <!-- ════════════════════════════════════════════
       FRAME 3 — MOBILE 390px — LIST VIEW
       ════════════════════════════════════════════ -->

  <!-- Frame container: 390px wide content, with outer padding gives 420px visual width -->
  <g id="frame3-mobile">
    <rect x="1296" y="40" width="426" height="860" rx="12" fill="#ffffff" stroke="#e4e4e7" stroke-width="1"/>

    <!-- Frame label -->
    <text x="1312" y="62" font-size="11" font-weight="600" fill="#0d9488">Frame 3 — Mobile 390px — List view</text>

    <!-- ── Mobile page header ── -->
    <!-- Row 1: "Sessions" h1 title -->
    <text x="1328" y="102" font-size="24" font-weight="600" fill="#18181b">Sessions</text>

    <!-- Row 2: controls wrap — Show archived switch | toggle group | New Session btn -->
    <!-- Show archived switch -->
    <rect x="1328" y="116" width="36" height="20" rx="10" fill="#e4e4e7"/>
    <circle cx="1339" cy="126" r="8" fill="#ffffff" filter="drop-shadow(0 1px 2px rgba(0,0,0,0.15))"/>
    <text x="1370" y="131" font-size="13" fill="#71717a">Show archived</text>

    <!-- View toggle group: rounded-lg border border-zinc-200 p-0.5 — LayoutList ACTIVE -->
    <!-- Placed on second wrapped line at y=148 (flex-wrap gap-2) -->
    <rect x="1328" y="146" width="72" height="28" rx="6" fill="#f4f4f5" stroke="#e4e4e7" stroke-width="1"/>
    <!-- LayoutGrid inactive -->
    <rect x="1330" y="148" width="32" height="24" rx="5" fill="transparent"/>
    <g transform="translate(1338, 156)">
      <rect x="0" y="0" width="5" height="5" rx="0.8" fill="#71717a"/>
      <rect x="7" y="0" width="5" height="5" rx="0.8" fill="#71717a"/>
      <rect x="0" y="7" width="5" height="5" rx="0.8" fill="#71717a"/>
      <rect x="7" y="7" width="5" height="5" rx="0.8" fill="#71717a"/>
    </g>
    <!-- LayoutList ACTIVE -->
    <rect x="1364" y="148" width="32" height="24" rx="5" fill="#f4f4f5"/>
    <g transform="translate(1372, 156)">
      <line x1="0" y1="2" x2="12" y2="2" stroke="#18181b" stroke-width="1.5" stroke-linecap="round"/>
      <line x1="0" y1="6" x2="12" y2="6" stroke="#18181b" stroke-width="1.5" stroke-linecap="round"/>
      <line x1="0" y1="10" x2="12" y2="10" stroke="#18181b" stroke-width="1.5" stroke-linecap="round"/>
    </g>

    <!-- New Session button on same wrapped second line -->
    <rect x="1410" y="144" width="96" height="36" rx="6" fill="#0d9488"/>
    <text x="1430" y="167" font-size="13" font-weight="500" fill="#ffffff">+ New</text>

    <!-- Divider below header -->
    <line x1="1312" y1="194" x2="1710" y2="194" stroke="#e4e4e7" stroke-width="1"/>

    <!-- flex-wrap annotation arrow callout -->
    <text x="1312" y="215" font-size="10" fill="#71717a" font-style="italic">flex-wrap gap-2 — controls drop to second line at sm breakpoint</text>

    <!-- ── Mobile list table: 3 columns — Name | State | Actions ── -->
    <!-- Table container: rounded-xl border border-zinc-200 full-width -->
    <!-- Table top-left radius clipped by header rect below; use separate rects for header/body -->
    <rect x="1312" y="226" width="396" height="228" rx="12" fill="#ffffff" stroke="#e4e4e7" stroke-width="1"/>

    <!-- Table header background -->
    <rect x="1312" y="226" width="396" height="40" rx="12" fill="#fafafa"/>
    <!-- Fill bottom half of header rect corners so it merges with body -->
    <rect x="1312" y="246" width="396" height="20" fill="#fafafa"/>
    <!-- Divider below header -->
    <line x1="1312" y1="266" x2="1708" y2="266" stroke="#e4e4e7" stroke-width="1"/>

    <!-- Column headers: NAME | STATE | (actions) -->
    <text x="1328" y="250" font-size="11" font-weight="500" fill="#71717a" letter-spacing="0.06em">NAME</text>
    <text x="1556" y="250" font-size="11" font-weight="500" fill="#71717a" letter-spacing="0.06em">STATE</text>
    <!-- Actions column: no label, right-aligned -->

    <!-- ── Row 1: normal — Research sprint / idle ── -->
    <rect x="1312" y="266" width="396" height="52" fill="#fafafa"/>
    <text x="1328" y="296" font-size="13" font-weight="500" fill="#18181b">Research sprint</text>
    <!-- AgentStateBadge idle: bg-zinc-100 text-zinc-600 -->
    <rect x="1556" y="284" width="32" height="18" rx="9" fill="#f4f4f5"/>
    <text x="1562" y="297" font-size="10" font-weight="500" fill="#52525b">idle</text>
    <!-- Actions: Archive icon + Trash2 icon, each h-8 w-8 ghost -->
    <g transform="translate(1628, 274)">
      <!-- Archive icon -->
      <rect width="32" height="32" rx="5" fill="transparent"/>
      <!-- archive box lid -->
      <line x1="6" y1="10" x2="26" y2="10" stroke="#71717a" stroke-width="1.4" stroke-linecap="round"/>
      <rect x="5" y="10" width="22" height="14" rx="2" fill="none" stroke="#71717a" stroke-width="1.4"/>
      <!-- archive down arrow -->
      <polyline points="13,16 16,20 19,16" fill="none" stroke="#71717a" stroke-width="1.4" stroke-linecap="round" stroke-linejoin="round"/>
      <line x1="16" y1="14" x2="16" y2="20" stroke="#71717a" stroke-width="1.4" stroke-linecap="round"/>
    </g>
    <g transform="translate(1664, 274)">
      <!-- Trash2 icon -->
      <rect width="32" height="32" rx="5" fill="transparent"/>
      <line x1="8" y1="9" x2="24" y2="9" stroke="#71717a" stroke-width="1.4" stroke-linecap="round"/>
      <line x1="14" y1="7" x2="18" y2="7" stroke="#71717a" stroke-width="1.4" stroke-linecap="round"/>
      <rect x="7" y="10" width="18" height="14" rx="2" fill="none" stroke="#71717a" stroke-width="1.4"/>
      <line x1="13" y1="14" x2="13" y2="20" stroke="#71717a" stroke-width="1.2" stroke-linecap="round"/>
      <line x1="17" y1="14" x2="17" y2="20" stroke="#71717a" stroke-width="1.2" stroke-linecap="round"/>
    </g>

    <line x1="1313" y1="318" x2="1707" y2="318" stroke="#e4e4e7" stroke-width="1"/>

    <!-- ── Row 2: normal — Code refactor / thinking ── -->
    <rect x="1312" y="318" width="396" height="52" fill="#ffffff"/>
    <text x="1328" y="348" font-size="13" font-weight="500" fill="#18181b">Code refactor</text>
    <!-- AgentStateBadge thinking: teal -->
    <rect x="1556" y="336" width="62" height="18" rx="9" fill="#f0fdfa"/>
    <circle cx="1567" cy="345" r="3" fill="#0d9488" opacity="0.7"/>
    <text x="1573" y="349" font-size="10" font-weight="500" fill="#0f766e">thinking</text>
    <!-- Actions -->
    <g transform="translate(1628, 326)">
      <rect width="32" height="32" rx="5" fill="transparent"/>
      <line x1="6" y1="10" x2="26" y2="10" stroke="#71717a" stroke-width="1.4" stroke-linecap="round"/>
      <rect x="5" y="10" width="22" height="14" rx="2" fill="none" stroke="#71717a" stroke-width="1.4"/>
      <polyline points="13,16 16,20 19,16" fill="none" stroke="#71717a" stroke-width="1.4" stroke-linecap="round" stroke-linejoin="round"/>
      <line x1="16" y1="14" x2="16" y2="20" stroke="#71717a" stroke-width="1.4" stroke-linecap="round"/>
    </g>
    <g transform="translate(1664, 326)">
      <rect width="32" height="32" rx="5" fill="transparent"/>
      <line x1="8" y1="9" x2="24" y2="9" stroke="#71717a" stroke-width="1.4" stroke-linecap="round"/>
      <line x1="14" y1="7" x2="18" y2="7" stroke="#71717a" stroke-width="1.4" stroke-linecap="round"/>
      <rect x="7" y="10" width="18" height="14" rx="2" fill="none" stroke="#71717a" stroke-width="1.4"/>
      <line x1="13" y1="14" x2="13" y2="20" stroke="#71717a" stroke-width="1.2" stroke-linecap="round"/>
      <line x1="17" y1="14" x2="17" y2="20" stroke="#71717a" stroke-width="1.2" stroke-linecap="round"/>
    </g>

    <line x1="1313" y1="370" x2="1707" y2="370" stroke="#e4e4e7" stroke-width="1"/>

    <!-- ── Row 3: archived — Old experiment / idle + Archived badge ── -->
    <rect x="1312" y="370" width="396" height="52" fill="#fafafa" opacity="0.7"/>
    <text x="1328" y="400" font-size="13" font-weight="500" fill="#18181b" opacity="0.6">Old experiment</text>
    <!-- idle badge + Archived badge -->
    <rect x="1556" y="388" width="32" height="18" rx="9" fill="#f4f4f5" opacity="0.6"/>
    <text x="1562" y="401" font-size="10" font-weight="500" fill="#52525b" opacity="0.6">idle</text>
    <!-- Archived label below badge (stacked within cell due to narrow column) -->
    <!-- Actions: ArchiveRestore + Trash2 for archived row -->
    <g transform="translate(1628, 378)" opacity="0.8">
      <!-- ArchiveRestore icon -->
      <rect width="32" height="32" rx="5" fill="transparent"/>
      <rect x="3" y="10" width="22" height="14" rx="2" fill="none" stroke="#71717a" stroke-width="1.4"/>
      <polyline points="13,17 16,13 19,17" fill="none" stroke="#71717a" stroke-width="1.4" stroke-linecap="round" stroke-linejoin="round"/>
      <line x1="16" y1="13" x2="16" y2="21" stroke="#71717a" stroke-width="1.4" stroke-linecap="round"/>
      <line x1="3" y1="10" x2="29" y2="10" stroke="#71717a" stroke-width="1.4" stroke-linecap="round"/>
    </g>
    <g transform="translate(1664, 378)" opacity="0.8">
      <rect width="32" height="32" rx="5" fill="transparent"/>
      <line x1="8" y1="9" x2="24" y2="9" stroke="#71717a" stroke-width="1.4" stroke-linecap="round"/>
      <line x1="14" y1="7" x2="18" y2="7" stroke="#71717a" stroke-width="1.4" stroke-linecap="round"/>
      <rect x="7" y="10" width="18" height="14" rx="2" fill="none" stroke="#71717a" stroke-width="1.4"/>
    </g>

    <line x1="1313" y1="422" x2="1707" y2="422" stroke="#e4e4e7" stroke-width="1"/>

    <!-- ── Row 4: normal — Data pipeline / idle ── -->
    <rect x="1312" y="422" width="396" height="52" fill="#fafafa"/>
    <text x="1328" y="452" font-size="13" font-weight="500" fill="#18181b">Data pipeline</text>
    <!-- AgentStateBadge idle -->
    <rect x="1556" y="440" width="32" height="18" rx="9" fill="#f4f4f5"/>
    <text x="1562" y="453" font-size="10" font-weight="500" fill="#52525b">idle</text>
    <!-- Actions -->
    <g transform="translate(1628, 430)">
      <rect width="32" height="32" rx="5" fill="transparent"/>
      <line x1="6" y1="10" x2="26" y2="10" stroke="#71717a" stroke-width="1.4" stroke-linecap="round"/>
      <rect x="5" y="10" width="22" height="14" rx="2" fill="none" stroke="#71717a" stroke-width="1.4"/>
      <polyline points="13,16 16,20 19,16" fill="none" stroke="#71717a" stroke-width="1.4" stroke-linecap="round" stroke-linejoin="round"/>
      <line x1="16" y1="14" x2="16" y2="20" stroke="#71717a" stroke-width="1.4" stroke-linecap="round"/>
    </g>
    <g transform="translate(1664, 430)">
      <rect width="32" height="32" rx="5" fill="transparent"/>
      <line x1="8" y1="9" x2="24" y2="9" stroke="#71717a" stroke-width="1.4" stroke-linecap="round"/>
      <line x1="14" y1="7" x2="18" y2="7" stroke="#71717a" stroke-width="1.4" stroke-linecap="round"/>
      <rect x="7" y="10" width="18" height="14" rx="2" fill="none" stroke="#71717a" stroke-width="1.4"/>
      <line x1="13" y1="14" x2="13" y2="20" stroke="#71717a" stroke-width="1.2" stroke-linecap="round"/>
      <line x1="17" y1="14" x2="17" y2="20" stroke="#71717a" stroke-width="1.2" stroke-linecap="round"/>
    </g>

    <!-- ── Annotation box ── -->
    <rect x="1312" y="476" width="396" height="72" rx="8" fill="#fef9c3" stroke="#fde047" stroke-width="1"/>
    <text x="1328" y="496" font-size="11" font-weight="600" fill="#713f12">Mobile: show Name + State + Actions only.</text>
    <text x="1328" y="512" font-size="11" fill="#713f12">Model column: hidden sm:table-cell</text>
    <text x="1328" y="528" font-size="10" fill="#92400e">Updated column also hidden on mobile — omitted for viewport fit.</text>
    <text x="1328" y="542" font-size="10" fill="#92400e">h-8 w-8 ghost icon buttons — Archive + Trash2 per normal row.</text>

    <!-- Mobile-specific annotation: column widths note -->
    <text x="1312" y="570" font-size="10" fill="#71717a">Col widths: Name (flex-1) — State (w-24) — Actions (w-20, text-right)</text>
    <text x="1312" y="584" font-size="10" fill="#71717a">Table: rounded-xl border border-zinc-200 full-width — text-sm rows</text>

  </g>

</svg>
