<svg xmlns="http://www.w3.org/2000/svg" width="1440" height="2400" viewBox="0 0 1440 2400" font-family="'Geist', 'Inter', ui-sans-serif, system-ui, sans-serif">
  <desc>
  SUPERSEDED — MCP Servers column schema superseded. DS §16 FLAG-002. Do not use as a build target. See DS §16 FLAG-002.
  Component: Settings Page (ConfigFlagsForm + ProviderList + McpServerList)
  Page: /settings
  Design system version: 1.6 (2026-03-08)
  Artboards: desktop 1440px — three stacked frames (General, Providers &amp; Models, MCP Servers)
  </desc>

  <!-- Page background -->
  <rect width="1440" height="2400" fill="#f4f4f5"/>

  <!-- ===================== FRAME 1: GENERAL TAB ===================== -->
  <rect y="0" width="1440" height="740" fill="#ffffff"/>
  <text x="240" y="20" font-size="11" font-weight="500" fill="#71717a">Frame 1 — Settings / General tab</text>

  <!-- SIDEBAR -->
  <g id="layer-sidebar-f1">
    <rect x="0" y="0" width="220" height="740" fill="#fafafa"/>
    <line x1="220" y1="0" x2="220" y2="740" stroke="#e4e4e7" stroke-width="1"/>
    <text x="16" y="36" font-size="18" font-weight="600" fill="#18181b">Cogtrix</text>
    <line x1="0" y1="56" x2="220" y2="56" stroke="#e4e4e7" stroke-width="1"/>
    <!-- Sessions -->
    <g><rect x="8" y="64" width="204" height="36" rx="6" fill="none"/>
    <g transform="translate(18, 72)" fill="none" stroke="#a1a1aa" stroke-width="1.75" stroke-linecap="round" stroke-linejoin="round">
      <rect x="0" y="0" width="16" height="13" rx="2"/>
      <polyline points="0,13 0,16 4,13"/>
    </g>
    <text x="42" y="87" font-size="14" font-weight="500" fill="#52525b">Sessions</text></g>
    <!-- Documents -->
    <g><rect x="8" y="108" width="204" height="36" rx="6" fill="none"/>
    <text x="42" y="131" font-size="14" font-weight="500" fill="#52525b">Documents</text></g>
    <!-- Assistant -->
    <g><rect x="8" y="152" width="204" height="36" rx="6" fill="none"/>
    <text x="42" y="175" font-size="14" font-weight="500" fill="#52525b">Assistant</text></g>
    <!-- Settings ACTIVE -->
    <g><rect x="8" y="196" width="204" height="36" rx="6" fill="#f5f3ff"/>
    <rect x="8" y="196" width="2" height="36" rx="1" fill="#7c3aed"/>
    <g transform="translate(18, 204)" fill="none" stroke="#7c3aed" stroke-width="1.75" stroke-linecap="round" stroke-linejoin="round">
      <circle cx="8" cy="8" r="3"/>
      <path d="M8 0 L8 2 M8 14 L8 16 M0 8 L2 8 M14 8 L16 8"/>
    </g>
    <text x="42" y="219" font-size="14" font-weight="500" fill="#7c3aed">Settings</text></g>
    <line x1="0" y1="660" x2="220" y2="660" stroke="#e4e4e7" stroke-width="1"/>
    <circle cx="30" cy="698" r="16" fill="#ede9fe"/>
    <text x="30" y="703" font-size="12" font-weight="600" fill="#6d28d9" text-anchor="middle">A</text>
    <text x="54" y="694" font-size="14" font-weight="500" fill="#18181b">admin</text>
    <text x="54" y="710" font-size="12" fill="#71717a">Administrator</text>
  </g>

  <!-- MAIN CONTENT Frame 1 -->
  <g id="layer-content-f1">
    <!-- Page header -->
    <text x="318" y="54" font-size="24" font-weight="600" fill="#18181b">Settings</text>
    <line x1="318" y1="70" x2="1342" y2="70" stroke="#e4e4e7" stroke-width="1"/>

    <!-- Tab bar: General active -->
    <rect x="318" y="90" width="1024" height="40" rx="6" fill="#f4f4f5"/>
    <!-- General — ACTIVE -->
    <rect x="322" y="92" width="118" height="36" rx="5" fill="#ffffff"/>
    <text x="381" y="115" font-size="14" font-weight="500" fill="#18181b" text-anchor="middle">General</text>
    <rect x="343" y="124" width="76" height="2" rx="1" fill="#7c3aed"/>
    <!-- Other tabs -->
    <text x="510" y="115" font-size="14" font-weight="500" fill="#71717a" text-anchor="middle">Providers &amp; Models</text>
    <text x="680" y="115" font-size="14" font-weight="500" fill="#71717a" text-anchor="middle">MCP Servers</text>
    <text x="820" y="115" font-size="14" font-weight="500" fill="#71717a" text-anchor="middle">API Keys</text>
    <text x="970" y="115" font-size="14" font-weight="500" fill="#71717a" text-anchor="middle">Setup Wizard</text>

    <!-- Config summary block: rounded-xl border bg-zinc-50 p-4 -->
    <rect x="318" y="148" width="1024" height="76" rx="12" fill="#fafafa" stroke="#e4e4e7" stroke-width="1"/>
    <!-- dl grid 2 cols -->
    <text x="338" y="172" font-size="14" fill="#71717a">Active model</text>
    <text x="460" y="172" font-size="14" font-weight="500" fill="#18181b">claude-3-5-sonnet</text>
    <text x="660" y="172" font-size="14" fill="#71717a">Memory mode</text>
    <text x="780" y="172" font-size="14" font-weight="500" fill="#18181b">conversation</text>
    <!-- Config file row: full width, font-mono text-xs -->
    <text x="338" y="198" font-size="14" fill="#71717a">Config file</text>
    <text x="430" y="198" font-size="12" font-family="'Geist Mono', 'Courier New', monospace" fill="#18181b">/etc/cogtrix/config.yaml</text>

    <!-- Feature flag rows: divide-y divide-zinc-200 -->
    <!-- Row 1: Debug mode — Off -->
    <line x1="318" y1="240" x2="1342" y2="240" stroke="#e4e4e7" stroke-width="1"/>
    <rect x="318" y="240" width="1024" height="56" fill="#ffffff"/>
    <text x="338" y="264" font-size="14" font-weight="500" fill="#18181b">Debug mode</text>
    <text x="338" y="282" font-size="14" fill="#71717a">Enable verbose debug output in server logs. Use only in development.</text>
    <!-- Switch OFF -->
    <rect x="1290" y="254" width="36" height="20" rx="10" fill="#e4e4e7"/>
    <circle cx="1301" cy="264" r="8" fill="#ffffff"/>

    <!-- Row 2: Verbose logging — Off -->
    <line x1="318" y1="296" x2="1342" y2="296" stroke="#e4e4e7" stroke-width="1"/>
    <rect x="318" y="296" width="1024" height="56" fill="#ffffff"/>
    <text x="338" y="320" font-size="14" font-weight="500" fill="#18181b">Verbose logging</text>
    <text x="338" y="338" font-size="14" fill="#71717a">Log additional detail for every agent step and API call.</text>
    <!-- Switch OFF -->
    <rect x="1290" y="310" width="36" height="20" rx="10" fill="#e4e4e7"/>
    <circle cx="1301" cy="320" r="8" fill="#ffffff"/>

    <!-- Row 3: Prompt optimizer — On -->
    <line x1="318" y1="352" x2="1342" y2="352" stroke="#e4e4e7" stroke-width="1"/>
    <rect x="318" y="352" width="1024" height="56" fill="#ffffff"/>
    <text x="338" y="376" font-size="14" font-weight="500" fill="#18181b">Prompt optimizer</text>
    <text x="338" y="394" font-size="14" fill="#71717a">Automatically rewrite user prompts to improve agent reasoning quality.</text>
    <!-- Switch ON -->
    <rect x="1290" y="366" width="36" height="20" rx="10" fill="#7c3aed"/>
    <circle cx="1317" cy="376" r="8" fill="#ffffff"/>

    <!-- Row 4: Parallel tool execution — On -->
    <line x1="318" y1="408" x2="1342" y2="408" stroke="#e4e4e7" stroke-width="1"/>
    <rect x="318" y="408" width="1024" height="56" fill="#ffffff"/>
    <text x="338" y="432" font-size="14" font-weight="500" fill="#18181b">Parallel tool execution</text>
    <text x="338" y="450" font-size="14" fill="#71717a">Run independent tool calls concurrently to reduce latency.</text>
    <!-- Switch ON -->
    <rect x="1290" y="422" width="36" height="20" rx="10" fill="#7c3aed"/>
    <circle cx="1317" cy="432" r="8" fill="#ffffff"/>

    <!-- Row 5: Context compression — On -->
    <line x1="318" y1="464" x2="1342" y2="464" stroke="#e4e4e7" stroke-width="1"/>
    <rect x="318" y="464" width="1024" height="56" fill="#ffffff"/>
    <text x="338" y="488" font-size="14" font-weight="500" fill="#18181b">Context compression</text>
    <text x="338" y="506" font-size="14" fill="#71717a">Compress older context to stay within the model's context window.</text>
    <!-- Switch ON -->
    <rect x="1290" y="478" width="36" height="20" rx="10" fill="#7c3aed"/>
    <circle cx="1317" cy="488" r="8" fill="#ffffff"/>

    <!-- Reload from disk button: border-t, flex justify-end, pt-4 -->
    <line x1="318" y1="520" x2="1342" y2="520" stroke="#e4e4e7" stroke-width="1"/>
    <rect x="318" y="520" width="1024" height="52" fill="#ffffff"/>
    <!-- Button: outline, size sm, RefreshCw icon + label -->
    <rect x="1094" y="532" width="232" height="36" rx="8" fill="#ffffff" stroke="#e4e4e7" stroke-width="1"/>
    <!-- RefreshCw icon: 16px -->
    <g transform="translate(1110, 543)" fill="none" stroke="#18181b" stroke-width="1.75" stroke-linecap="round" stroke-linejoin="round">
      <path d="M1 4 A7 7 0 1 1 0 8"/>
      <polyline points="0,0 0,4 4,4"/>
    </g>
    <text x="1134" y="555" font-size="13" font-weight="500" fill="#18181b">Reload config from disk</text>

    <!-- Loading state annotation -->
    <rect x="318" y="588" width="1024" height="110" rx="8" fill="#fafafa" stroke="#e4e4e7" stroke-width="1"/>
    <text x="338" y="608" font-size="11" font-weight="500" fill="#71717a">Loading state skeleton</text>
    <!-- Summary block skeleton -->
    <rect x="338" y="616" width="120" height="14" rx="4" fill="#e4e4e7"/>
    <rect x="500" y="616" width="160" height="14" rx="4" fill="#e4e4e7"/>
    <!-- Flag row skeletons -->
    <rect x="338" y="640" width="144" height="14" rx="4" fill="#e4e4e7"/>
    <rect x="338" y="658" width="256" height="12" rx="4" fill="#e4e4e7"/>
    <rect x="1302" y="644" width="32" height="20" rx="10" fill="#e4e4e7"/>
    <rect x="338" y="676" width="120" height="14" rx="4" fill="#e4e4e7"/>
    <rect x="338" y="692" width="220" height="12" rx="4" fill="#e4e4e7"/>
    <rect x="1302" y="680" width="32" height="20" rx="10" fill="#e4e4e7"/>
  </g>

  <!-- ===================== FRAME 2: PROVIDERS & MODELS TAB ===================== -->
  <rect y="760" width="1440" height="900" fill="#ffffff"/>
  <line x1="0" y1="760" x2="1440" y2="760" stroke="#e4e4e7" stroke-width="2"/>
  <text x="240" y="780" font-size="11" font-weight="500" fill="#71717a">Frame 2 — Settings / Providers &amp; Models tab</text>

  <!-- Sidebar F2 (abbreviated) -->
  <g id="layer-sidebar-f2">
    <rect x="0" y="760" width="220" height="900" fill="#fafafa"/>
    <line x1="220" y1="760" x2="220" y2="1660" stroke="#e4e4e7" stroke-width="1"/>
    <text x="16" y="796" font-size="18" font-weight="600" fill="#18181b">Cogtrix</text>
    <line x1="0" y1="816" x2="220" y2="816" stroke="#e4e4e7" stroke-width="1"/>
    <text x="42" y="847" font-size="14" font-weight="500" fill="#52525b">Sessions</text>
    <text x="42" y="891" font-size="14" font-weight="500" fill="#52525b">Documents</text>
    <text x="42" y="935" font-size="14" font-weight="500" fill="#52525b">Assistant</text>
    <!-- Settings active -->
    <rect x="8" y="956" width="204" height="36" rx="6" fill="#f5f3ff"/>
    <rect x="8" y="956" width="2" height="36" rx="1" fill="#7c3aed"/>
    <text x="42" y="979" font-size="14" font-weight="500" fill="#7c3aed">Settings</text>
  </g>

  <!-- Main content F2 -->
  <g id="layer-content-f2">
    <!-- Header -->
    <text x="318" y="814" font-size="24" font-weight="600" fill="#18181b">Settings</text>
    <line x1="318" y1="830" x2="1342" y2="830" stroke="#e4e4e7" stroke-width="1"/>

    <!-- Tab bar: Providers & Models active -->
    <rect x="318" y="850" width="1024" height="40" rx="6" fill="#f4f4f5"/>
    <text x="381" y="875" font-size="14" font-weight="500" fill="#71717a" text-anchor="middle">General</text>
    <!-- Providers & Models ACTIVE -->
    <rect x="430" y="852" width="180" height="36" rx="5" fill="#ffffff"/>
    <text x="520" y="875" font-size="14" font-weight="500" fill="#18181b" text-anchor="middle">Providers &amp; Models</text>
    <rect x="451" y="884" width="138" height="2" rx="1" fill="#7c3aed"/>
    <text x="680" y="875" font-size="14" font-weight="500" fill="#71717a" text-anchor="middle">MCP Servers</text>
    <text x="820" y="875" font-size="14" font-weight="500" fill="#71717a" text-anchor="middle">API Keys</text>
    <text x="970" y="875" font-size="14" font-weight="500" fill="#71717a" text-anchor="middle">Setup Wizard</text>

    <!-- ---- SECTION 1: Providers ---- -->
    <!-- Section heading -->
    <text x="318" y="920" font-size="18" font-weight="600" fill="#18181b">Providers</text>

    <!-- Table wrapper: rounded-xl border border-zinc-200 -->
    <rect x="318" y="932" width="1024" height="224" rx="12" fill="#ffffff" stroke="#e4e4e7" stroke-width="1"/>

    <!-- Table header row -->
    <rect x="318" y="932" width="1024" height="40" rx="12" fill="#fafafa"/>
    <rect x="318" y="952" width="1024" height="20" fill="#fafafa"/>
    <line x1="318" y1="972" x2="1342" y2="972" stroke="#e4e4e7" stroke-width="1"/>
    <text x="338" y="956" font-size="11" font-weight="500" fill="#71717a" letter-spacing="0.05em">NAME</text>
    <text x="480" y="956" font-size="11" font-weight="500" fill="#71717a" letter-spacing="0.05em">TYPE</text>
    <text x="580" y="956" font-size="11" font-weight="500" fill="#71717a" letter-spacing="0.05em">BASE URL</text>
    <text x="810" y="956" font-size="11" font-weight="500" fill="#71717a" letter-spacing="0.05em">API KEY</text>
    <text x="960" y="956" font-size="11" font-weight="500" fill="#71717a" letter-spacing="0.05em">HEALTH</text>
    <!-- NOTE: No Switch-to column, no Status column -->
    <text x="1100" y="956" font-size="10" fill="#a1a1aa" font-style="italic">← No "Switch to" or Status columns</text>

    <!-- Provider row 1: openai — default health state -->
    <rect x="318" y="972" width="1024" height="52" fill="#ffffff"/>
    <line x1="318" y1="1024" x2="1342" y2="1024" stroke="#f4f4f5" stroke-width="1"/>
    <text x="338" y="1002" font-size="14" font-weight="500" fill="#18181b">openai</text>
    <text x="480" y="1002" font-size="14" fill="#18181b">openai</text>
    <text x="580" y="1002" font-size="13" font-family="'Geist Mono', 'Courier New', monospace" fill="#18181b">https://api.openai.com/v1</text>
    <!-- API key: configured (green dot) -->
    <circle cx="816" cy="998" r="4" fill="#16a34a"/>
    <text x="828" y="1002" font-size="12" fill="#71717a">Configured</text>
    <!-- Health: Check button (default state) -->
    <rect x="960" y="984" width="80" height="32" rx="6" fill="none"/>
    <!-- Activity icon -->
    <g transform="translate(966, 994)" fill="none" stroke="#18181b" stroke-width="1.5" stroke-linecap="round" stroke-linejoin="round">
      <polyline points="0,8 4,4 8,12 12,0 16,8"/>
    </g>
    <text x="986" y="1004" font-size="13" font-weight="500" fill="#18181b">Check</text>

    <!-- Provider row 2: anthropic — success health -->
    <rect x="318" y="1024" width="1024" height="52" fill="#ffffff"/>
    <line x1="318" y1="1076" x2="1342" y2="1076" stroke="#f4f4f5" stroke-width="1"/>
    <text x="338" y="1054" font-size="14" font-weight="500" fill="#18181b">anthropic</text>
    <text x="480" y="1054" font-size="14" fill="#18181b">anthropic</text>
    <text x="580" y="1054" font-size="13" font-family="'Geist Mono', 'Courier New', monospace" fill="#18181b">https://api.anthropic.com</text>
    <circle cx="816" cy="1050" r="4" fill="#16a34a"/>
    <text x="828" y="1054" font-size="12" fill="#71717a">Configured</text>
    <!-- Health: success — CheckCircle2 icon + "98ms" -->
    <g transform="translate(960, 1038)" fill="none" stroke="#16a34a" stroke-width="1.75" stroke-linecap="round" stroke-linejoin="round">
      <circle cx="8" cy="8" r="8"/>
      <polyline points="5,8 7,10 12,5"/>
    </g>
    <text x="982" y="1054" font-size="12" fill="#15803d">98ms</text>

    <!-- Provider row 3: local-ollama — fail health -->
    <rect x="318" y="1076" width="1024" height="80" fill="#ffffff"/>
    <text x="338" y="1110" font-size="14" font-weight="500" fill="#18181b">local-ollama</text>
    <text x="480" y="1110" font-size="14" fill="#18181b">ollama</text>
    <text x="580" y="1110" font-size="13" font-family="'Geist Mono', 'Courier New', monospace" fill="#18181b">http://localhost:11434</text>
    <!-- API key: none (zinc dot) -->
    <circle cx="816" cy="1106" r="4" fill="#a1a1aa"/>
    <text x="828" y="1110" font-size="12" fill="#71717a">None</text>
    <!-- Health: fail — XCircle icon + "Unreachable" -->
    <g transform="translate(960, 1094)" fill="none" stroke="#dc2626" stroke-width="1.75" stroke-linecap="round" stroke-linejoin="round">
      <circle cx="8" cy="8" r="8"/>
      <line x1="5" y1="5" x2="11" y2="11"/>
      <line x1="11" y1="5" x2="5" y2="11"/>
    </g>
    <text x="982" y="1110" font-size="12" fill="#dc2626">Unreachable</text>

    <!-- ---- SECTION 2: Models ---- -->
    <text x="318" y="1190" font-size="18" font-weight="600" fill="#18181b">Models</text>

    <!-- The "Switch to" action is ONLY on Models table, not Providers -->
    <text x="318" y="1210" font-size="11" fill="#71717a" font-style="italic">↑ "Switch to" action is on the Models table below — NOT on the Providers table above</text>

    <!-- Models table wrapper -->
    <rect x="318" y="1220" width="1024" height="224" rx="12" fill="#ffffff" stroke="#e4e4e7" stroke-width="1"/>

    <!-- Table header -->
    <rect x="318" y="1220" width="1024" height="40" rx="12" fill="#fafafa"/>
    <rect x="318" y="1240" width="1024" height="20" fill="#fafafa"/>
    <line x1="318" y1="1260" x2="1342" y2="1260" stroke="#e4e4e7" stroke-width="1"/>
    <text x="338" y="1244" font-size="11" font-weight="500" fill="#71717a" letter-spacing="0.05em">ALIAS</text>
    <text x="500" y="1244" font-size="11" font-weight="500" fill="#71717a" letter-spacing="0.05em">PROVIDER</text>
    <text x="660" y="1244" font-size="11" font-weight="500" fill="#71717a" letter-spacing="0.05em">MODEL NAME</text>
    <text x="900" y="1244" font-size="11" font-weight="500" fill="#71717a" letter-spacing="0.05em">STATUS</text>
    <text x="1060" y="1244" font-size="11" font-weight="500" fill="#71717a" letter-spacing="0.05em">ACTION</text>

    <!-- Model row 1: claude-3-5-sonnet — Active, no action button -->
    <rect x="318" y="1260" width="1024" height="52" fill="#ffffff"/>
    <line x1="318" y1="1312" x2="1342" y2="1312" stroke="#f4f4f5" stroke-width="1"/>
    <text x="338" y="1290" font-size="14" font-weight="500" fill="#18181b">claude-3-5-sonnet</text>
    <text x="500" y="1290" font-size="14" fill="#18181b">anthropic</text>
    <text x="660" y="1290" font-size="13" font-family="'Geist Mono', 'Courier New', monospace" fill="#18181b">claude-3-5-sonnet-20241022</text>
    <!-- Status: Active -->
    <circle cx="906" cy="1286" r="4" fill="#16a34a"/>
    <text x="918" y="1290" font-size="12" fill="#71717a">Active</text>
    <!-- No action button for active model -->
    <text x="1060" y="1290" font-size="12" fill="#a1a1aa">—</text>

    <!-- Model row 2: gpt-4o — Inactive, Switch to button -->
    <rect x="318" y="1312" width="1024" height="52" fill="#ffffff"/>
    <line x1="318" y1="1364" x2="1342" y2="1364" stroke="#f4f4f5" stroke-width="1"/>
    <text x="338" y="1342" font-size="14" font-weight="500" fill="#18181b">gpt-4o</text>
    <text x="500" y="1342" font-size="14" fill="#18181b">openai</text>
    <text x="660" y="1342" font-size="13" font-family="'Geist Mono', 'Courier New', monospace" fill="#18181b">gpt-4o-2024-11-20</text>
    <!-- Status: Inactive -->
    <circle cx="906" cy="1338" r="4" fill="#a1a1aa"/>
    <text x="918" y="1342" font-size="12" fill="#71717a">Inactive</text>
    <!-- Switch to button -->
    <rect x="1060" y="1324" width="90" height="32" rx="6" fill="#ffffff" stroke="#e4e4e7" stroke-width="1"/>
    <text x="1105" y="1344" font-size="13" font-weight="500" fill="#18181b" text-anchor="middle">Switch to</text>

    <!-- Model row 3: gpt-4o-mini — Inactive, Switch to button -->
    <rect x="318" y="1364" width="1024" height="52" fill="#ffffff"/>
    <text x="338" y="1394" font-size="14" font-weight="500" fill="#18181b">gpt-4o-mini</text>
    <text x="500" y="1394" font-size="14" fill="#18181b">openai</text>
    <text x="660" y="1394" font-size="13" font-family="'Geist Mono', 'Courier New', monospace" fill="#18181b">gpt-4o-mini</text>
    <circle cx="906" cy="1390" r="4" fill="#a1a1aa"/>
    <text x="918" y="1394" font-size="12" fill="#71717a">Inactive</text>
    <rect x="1060" y="1376" width="90" height="32" rx="6" fill="#ffffff" stroke="#e4e4e7" stroke-width="1"/>
    <text x="1105" y="1396" font-size="13" font-weight="500" fill="#18181b" text-anchor="middle">Switch to</text>

    <!-- Non-admin annotation -->
    <rect x="318" y="1460" width="500" height="48" rx="8" fill="#fafafa" stroke="#e4e4e7" stroke-width="1"/>
    <text x="338" y="1480" font-size="12" font-weight="500" fill="#18181b">Non-admin view callout</text>
    <text x="338" y="1498" font-size="11" fill="#71717a">Action column header and "Switch to" buttons absent for non-admin users</text>

    <!-- Interaction state annotations -->
    <rect x="840" y="1460" width="500" height="48" rx="8" fill="#fafafa" stroke="#e4e4e7" stroke-width="1"/>
    <text x="860" y="1480" font-size="12" font-weight="500" fill="#18181b">Model switch in progress</text>
    <text x="860" y="1498" font-size="11" fill="#71717a">"Switch to" button: Loader2 spinner, opacity-50, disabled state</text>
  </g>

  <!-- ===================== FRAME 3: MCP SERVERS TAB ===================== -->
  <rect y="1680" width="1440" height="720" fill="#ffffff"/>
  <line x1="0" y1="1680" x2="1440" y2="1680" stroke="#e4e4e7" stroke-width="2"/>
  <text x="240" y="1700" font-size="11" font-weight="500" fill="#71717a">Frame 3 — Settings / MCP Servers tab</text>

  <!-- Sidebar F3 (abbreviated) -->
  <g id="layer-sidebar-f3">
    <rect x="0" y="1680" width="220" height="720" fill="#fafafa"/>
    <line x1="220" y1="1680" x2="220" y2="2400" stroke="#e4e4e7" stroke-width="1"/>
    <text x="16" y="1716" font-size="18" font-weight="600" fill="#18181b">Cogtrix</text>
    <line x1="0" y1="1736" x2="220" y2="1736" stroke="#e4e4e7" stroke-width="1"/>
    <text x="42" y="1767" font-size="14" font-weight="500" fill="#52525b">Sessions</text>
    <text x="42" y="1811" font-size="14" font-weight="500" fill="#52525b">Documents</text>
    <text x="42" y="1855" font-size="14" font-weight="500" fill="#52525b">Assistant</text>
    <rect x="8" y="1876" width="204" height="36" rx="6" fill="#f5f3ff"/>
    <rect x="8" y="1876" width="2" height="36" rx="1" fill="#7c3aed"/>
    <text x="42" y="1899" font-size="14" font-weight="500" fill="#7c3aed">Settings</text>
  </g>

  <!-- Main content F3 -->
  <g id="layer-content-f3">
    <text x="318" y="1734" font-size="24" font-weight="600" fill="#18181b">Settings</text>
    <line x1="318" y1="1750" x2="1342" y2="1750" stroke="#e4e4e7" stroke-width="1"/>

    <!-- Tab bar: MCP Servers active -->
    <rect x="318" y="1770" width="1024" height="40" rx="6" fill="#f4f4f5"/>
    <text x="381" y="1795" font-size="14" font-weight="500" fill="#71717a" text-anchor="middle">General</text>
    <text x="520" y="1795" font-size="14" font-weight="500" fill="#71717a" text-anchor="middle">Providers &amp; Models</text>
    <!-- MCP Servers ACTIVE -->
    <rect x="614" y="1772" width="132" height="36" rx="5" fill="#ffffff"/>
    <text x="680" y="1795" font-size="14" font-weight="500" fill="#18181b" text-anchor="middle">MCP Servers</text>
    <rect x="630" y="1804" width="100" height="2" rx="1" fill="#7c3aed"/>
    <text x="820" y="1795" font-size="14" font-weight="500" fill="#71717a" text-anchor="middle">API Keys</text>
    <text x="970" y="1795" font-size="14" font-weight="500" fill="#71717a" text-anchor="middle">Setup Wizard</text>

    <!-- Add MCP Server button: right-aligned primary -->
    <rect x="1202" y="1832" width="160" height="36" rx="8" fill="#7c3aed"/>
    <!-- Plus icon -->
    <g transform="translate(1218, 1844)" fill="none" stroke="#ffffff" stroke-width="2" stroke-linecap="round">
      <line x1="6" y1="0" x2="6" y2="12"/>
      <line x1="0" y1="6" x2="12" y2="6"/>
    </g>
    <text x="1244" y="1855" font-size="13" font-weight="500" fill="#ffffff">Add MCP Server</text>

    <!-- MCP Table -->
    <rect x="318" y="1880" width="1024" height="156" rx="12" fill="#ffffff" stroke="#e4e4e7" stroke-width="1"/>

    <!-- Table header -->
    <rect x="318" y="1880" width="1024" height="40" rx="12" fill="#fafafa"/>
    <rect x="318" y="1900" width="1024" height="20" fill="#fafafa"/>
    <line x1="318" y1="1920" x2="1342" y2="1920" stroke="#e4e4e7" stroke-width="1"/>
    <text x="338" y="1904" font-size="11" font-weight="500" fill="#71717a" letter-spacing="0.05em">NAME</text>
    <text x="500" y="1904" font-size="11" font-weight="500" fill="#71717a" letter-spacing="0.05em">URL</text>
    <text x="800" y="1904" font-size="11" font-weight="500" fill="#71717a" letter-spacing="0.05em">STATUS</text>
    <text x="1000" y="1904" font-size="11" font-weight="500" fill="#71717a" letter-spacing="0.05em">ACTION</text>

    <!-- Row 1: filesystem — Connected -->
    <rect x="318" y="1920" width="1024" height="52" fill="#ffffff"/>
    <line x1="318" y1="1972" x2="1342" y2="1972" stroke="#f4f4f5" stroke-width="1"/>
    <text x="338" y="1950" font-size="14" font-weight="500" fill="#18181b">filesystem</text>
    <text x="500" y="1950" font-size="13" font-family="'Geist Mono', 'Courier New', monospace" fill="#18181b">http://localhost:8001</text>
    <!-- Connected badge -->
    <rect x="800" y="1938" width="90" height="22" rx="11" fill="#f0fdf4" stroke="#bbf7d0" stroke-width="1"/>
    <text x="845" y="1953" font-size="12" font-weight="500" fill="#15803d" text-anchor="middle">Connected</text>
    <!-- Remove button: ghost, Trash icon, red -->
    <rect x="1010" y="1930" width="36" height="36" rx="6" fill="none"/>
    <g transform="translate(1018, 1938)" fill="none" stroke="#dc2626" stroke-width="1.75" stroke-linecap="round" stroke-linejoin="round">
      <polyline points="0,3 20,3"/>
      <path d="M2 3 L2 17 Q2 20 5 20 L15 20 Q18 20 18 17 L18 3"/>
      <path d="M6 3 L6 1 L14 1 L14 3"/>
    </g>

    <!-- Row 2: brave-search — Disconnected -->
    <rect x="318" y="1972" width="1024" height="52" fill="#ffffff"/>
    <text x="338" y="2002" font-size="14" font-weight="500" fill="#18181b">brave-search</text>
    <text x="500" y="2002" font-size="13" font-family="'Geist Mono', 'Courier New', monospace" fill="#18181b">http://localhost:8002</text>
    <!-- Disconnected badge -->
    <rect x="800" y="1990" width="104" height="22" rx="11" fill="#f4f4f5" stroke="#e4e4e7" stroke-width="1"/>
    <text x="852" y="2005" font-size="12" font-weight="500" fill="#71717a" text-anchor="middle">Disconnected</text>
    <rect x="1010" y="1982" width="36" height="36" rx="6" fill="none"/>
    <g transform="translate(1018, 1990)" fill="none" stroke="#dc2626" stroke-width="1.75" stroke-linecap="round" stroke-linejoin="round">
      <polyline points="0,3 20,3"/>
      <path d="M2 3 L2 17 Q2 20 5 20 L15 20 Q18 20 18 17 L18 3"/>
      <path d="M6 3 L6 1 L14 1 L14 3"/>
    </g>

    <!-- Empty state annotation -->
    <text x="318" y="2060" font-size="11" font-weight="500" fill="#71717a">Empty state: "No MCP servers configured." (text-sm text-zinc-500, centered)</text>
    <text x="318" y="2080" font-size="11" font-weight="500" fill="#71717a">Interaction states: Switch toggling → opacity-50 cursor-not-allowed during mutation; health check → Loader2 spinner replaces Activity icon</text>
  </g>
</svg>
